<svg width="188" height="34" viewBox="0 0 188 34" fill="none" xmlns="http://www.w3.org/2000/svg">
<path d="M39.2451 8.52948H43.0787V15.461H43.1747L48.2262 8.52948H52.4399L47.3128 15.3016L53.3901 25.4944H49.1826L45.0588 18.328L43.0787 20.9477V25.4944H39.2451V8.52948Z" fill="white"/>
<path d="M54.6978 12.5817H57.8304L58.1042 14.2165H58.1982C59.2854 13.1723 60.5891 12.269 62.3485 12.269C65.1563 12.269 66.3537 14.2492 66.3537 17.4779V25.4944H62.5181V17.9683C62.5181 16.1087 62.0195 15.5284 60.914 15.5284C59.9536 15.5284 59.3651 15.9739 58.5231 16.7831V25.4944H54.6978V12.5817Z" fill="white"/>
<path d="M68.4175 19.0432C68.4175 14.854 71.405 12.269 74.507 12.269C78.1853 12.269 80.0081 14.9419 80.0081 18.4669C80.0106 19.0341 79.9572 19.6002 79.8487 20.1569H72.1223C72.4677 22.0307 73.7571 22.891 75.4736 22.891C76.4504 22.891 77.3271 22.5927 78.265 22.045L79.5299 24.3521C78.1767 25.2721 76.5845 25.777 74.9484 25.805C71.2681 25.805 68.4175 23.3161 68.4175 19.0432ZM76.7385 17.627C76.7385 16.1966 76.1255 15.1749 74.5929 15.1749C73.3852 15.1749 72.3451 15.9923 72.0794 17.627H76.7385Z" fill="white"/>
<path d="M80.4966 12.5817H84.2975L85.5338 18.5609C85.7606 19.834 85.9016 21.0887 86.1182 22.3965H86.2224C86.4492 21.0887 86.6761 19.7911 86.9867 18.5609L88.3967 12.5817H91.7194L93.1702 18.5609C93.4829 19.834 93.7097 21.0887 93.9774 22.3965H94.0837C94.3085 21.0887 94.4495 19.834 94.6763 18.5609L95.9024 12.5817H99.4396L96.3519 25.4944H91.8706L90.6854 20.3326C90.4524 19.1351 90.2338 17.9478 89.9988 16.5562H89.8945C89.6677 17.9478 89.4859 19.1453 89.2386 20.3428L88.1065 25.4944H83.7294L80.4966 12.5817Z" fill="white"/>
<path d="M102.215 20.7985V15.5836H100.451V12.7227L102.429 12.5756L102.877 9.14459H106.042V12.5817H109.136V15.5836H106.042V20.7536C106.042 22.2167 106.706 22.7971 107.712 22.7971C108.131 22.7831 108.545 22.7003 108.938 22.5518L109.551 25.3289C108.622 25.642 107.649 25.8028 106.669 25.8051C103.484 25.8051 102.215 23.7922 102.215 20.7985Z" fill="white"/>
<path d="M110.24 19.0432C110.24 14.7519 113.262 12.269 116.53 12.269C119.797 12.269 122.813 14.7498 122.813 19.0432C122.813 23.3365 119.791 25.805 116.523 25.805C113.256 25.805 110.24 23.3263 110.24 19.0432ZM118.898 19.0432C118.898 16.8076 118.113 15.3649 116.53 15.3649C114.946 15.3649 114.161 16.8158 114.161 19.0432C114.161 21.2706 114.946 22.7214 116.53 22.7214C118.113 22.7214 118.898 21.2767 118.898 19.0432Z" fill="white"/>
<path d="M124.81 12.5817H127.922L128.198 14.2165H128.292C129.379 13.1723 130.68 12.269 132.442 12.269C135.25 12.269 136.445 14.2492 136.445 17.4779V25.4944H132.622V17.9683C132.622 16.1087 132.123 15.5284 131.018 15.5284C130.057 15.5284 129.469 15.9739 128.627 16.7831V25.4944H124.81V12.5817Z" fill="white"/>
<path d="M147.958 8.52948H152.546L157.875 25.4904H153.815L151.595 16.9077C151.125 15.2096 150.672 13.205 150.218 11.4353H150.114C149.705 13.2254 149.252 15.2096 148.78 16.9077L146.552 25.4904H142.635L147.958 8.52948ZM146.143 18.473H154.305V21.4565H146.143V18.473Z" fill="white"/>
<path d="M158.982 21.481V7.26044H162.808V21.6363C162.808 22.4537 163.186 22.7173 163.501 22.7173C163.658 22.722 163.816 22.7048 163.969 22.6662L164.424 25.4883C163.811 25.7194 163.158 25.8271 162.503 25.805C159.877 25.805 158.982 24.0946 158.982 21.481Z" fill="white"/>
<path d="M166.733 20.7985V15.5836H164.968V12.7227L166.948 12.5756L167.395 9.14459H170.559V12.5817H173.653V15.5836H170.559V20.7536C170.559 22.2167 171.223 22.7971 172.23 22.7971C172.65 22.7827 173.064 22.6999 173.456 22.5518L174.061 25.3392C173.139 25.6477 172.173 25.8057 171.2 25.8071C168 25.8051 166.733 23.7922 166.733 20.7985Z" fill="white"/>
<path d="M174.858 21.9122C174.858 19.1923 177.022 17.719 182.131 17.1795C182.053 16.0515 181.492 15.3138 180.088 15.3138C179.005 15.3138 177.924 15.7695 176.669 16.4807L175.31 13.9672C176.945 12.9659 178.794 12.269 180.827 12.269C184.128 12.269 185.957 14.1552 185.957 18.1113V25.4944H182.834L182.56 24.1723H182.466C181.379 25.1266 180.159 25.8071 178.708 25.8071C176.352 25.805 174.858 24.0885 174.858 21.9122ZM182.131 21.7426V19.4948C179.409 19.8626 178.522 20.6391 178.522 21.6159C178.522 22.4476 179.095 22.8563 180.004 22.8563C180.87 22.8481 181.461 22.419 182.131 21.7426V21.7426Z" fill="white"/>
<path d="M12.5121 5.41318C12.739 5.16592 13.9262 3.87035 15.0501 3.87035C15.2494 3.86689 15.4486 3.88263 15.6448 3.91735C15.784 3.94202 15.9208 3.97894 16.0535 4.0277C17.9989 4.71431 19.4477 7.58131 20.0648 11.609C20.9395 12.0586 21.7691 12.5347 22.5477 13.0272C21.8284 6.65765 19.3128 2.08435 16.2374 2.08435C14.9459 2.08435 13.7117 2.88948 12.6695 4.41596C12.6695 4.42618 12.3528 4.90435 12.2097 5.15365C11.9502 5.60526 12.2056 5.75239 12.5121 5.41318Z" fill="white"/>
<path d="M22.7667 16.3846C22.0068 15.7399 21.2031 15.1487 20.3616 14.6149C20.38 15.0236 20.3963 15.4323 20.3963 15.841C20.3953 15.8539 20.3953 15.8669 20.3963 15.8798C20.3953 15.8928 20.3953 15.9057 20.3963 15.9187C20.3963 17.1331 20.3226 18.3465 20.1756 19.552C20.0537 20.5298 19.8674 21.4985 19.6177 22.4517C19.4972 22.9155 19.3664 23.361 19.2213 23.7718C19.1069 24.0905 18.9863 24.3848 18.8617 24.677C17.985 26.6735 16.8182 27.824 15.635 27.8322C14.223 27.8424 13.0357 26.5693 12.2306 25.0326C11.7565 25.1327 11.2906 25.2185 10.8369 25.286C11.593 28.3859 13.1277 31.5268 16.2317 31.633C18.4897 31.7086 20.4453 29.2217 21.6142 25.3616C21.7552 24.8998 21.884 24.4216 22.0004 23.9312C22.2337 22.9199 22.4111 21.8967 22.5317 20.8659C22.64 19.9566 22.7116 19.0125 22.7361 18.0398C22.7483 17.6536 22.7565 17.2653 22.7565 16.8709C22.7708 16.6993 22.7688 16.5521 22.7667 16.3846Z" fill="white"/>
<path d="M22.7498 18.0276C22.7171 19.0003 22.6455 19.9443 22.5454 20.8537C23.4444 20.2974 24.309 19.6873 25.1345 19.0268C24.7365 18.4071 24.2734 17.8316 23.7531 17.3103C23.4323 17.5514 23.091 17.7905 22.7498 18.0276Z" fill="white"/>
<path d="M29.3688 11.0103C28.8457 9.82916 27.6074 9.02811 25.7866 8.69094C25.7744 8.69094 25.2124 8.59898 24.9263 8.57037C24.4114 8.51929 24.3787 8.81151 24.8139 8.95659C25.1327 9.06081 26.7981 9.62277 27.2538 10.6506C27.3388 10.8314 27.4072 11.0195 27.4582 11.2126C27.4932 11.352 27.5158 11.4942 27.5256 11.6376C27.6176 12.8065 26.9964 14.1143 25.8173 15.4283C26.3636 15.9086 26.8815 16.4204 27.3683 16.9609C29.2973 14.8112 30.1065 12.6696 29.3688 11.0103Z" fill="white"/>
<path d="M19.8567 19.7319L19.7933 19.7605C19.3642 19.9812 18.9228 20.1923 18.4691 20.394L18.4344 20.4083L18.3915 20.4348C15.7534 21.6037 13.3196 22.2617 11.2843 22.4906C10.9594 22.5274 10.6447 22.5519 10.3402 22.5682C7.85941 22.6867 6.11632 22.0901 5.58502 20.9171C4.74515 19.0391 6.56385 16.5073 8.37845 15.0196C9.3348 14.237 11.1147 13.1437 11.5172 12.8985C11.9198 12.6533 11.9934 12.1363 11.2414 12.357C11.0615 12.4101 0.0553672 17.3042 2.35224 22.9933C3.23706 25.1859 6.55976 25.9297 10.8368 25.286C11.2904 25.2186 11.7563 25.1328 12.2304 25.0327C13.6589 24.7268 15.0631 24.317 16.4318 23.8066L17.5496 23.3734C17.8684 23.2426 18.1851 23.1159 18.5059 22.9647C18.886 22.7971 19.2538 22.6193 19.6176 22.4436C19.8647 21.4936 20.049 20.5283 20.1693 19.5541L19.9486 19.6726L19.8567 19.7319Z" fill="white"/>
<path d="M15.2011 19.0984C16.3839 19.0984 17.3427 18.1396 17.3427 16.9568C17.3427 15.7741 16.3839 14.8152 15.2011 14.8152C14.0184 14.8152 13.0596 15.7741 13.0596 16.9568C13.0596 18.1396 14.0184 19.0984 15.2011 19.0984Z" fill="white"/>
<path d="M27.3686 16.9609C26.8795 16.4237 26.3596 15.9153 25.8115 15.4385C24.79 14.5553 23.7016 13.7525 22.5562 13.0374C21.7776 12.5449 20.948 12.0688 20.0734 11.6192C19.634 11.3924 19.1865 11.1737 18.7267 10.9612C11.2067 7.4873 4.11177 7.36469 2.58325 10.6894C2.03151 11.8522 2.24812 13.3112 3.1922 14.901C3.1922 14.901 3.50281 15.3935 3.66833 15.6265C3.97077 16.0495 4.2119 15.8799 4.03207 15.4589C3.90129 15.1483 3.22694 13.5278 3.69694 12.5061C3.77862 12.3247 3.87642 12.151 3.98916 11.987C4.07099 11.8661 4.16331 11.7526 4.26503 11.6478C5.9979 9.87 10.2933 10.0641 15.2998 12.032L15.402 12.0729L15.4674 12.0994C15.9142 12.2765 16.3638 12.4693 16.8161 12.6777L16.8508 12.6961L16.8855 12.7104C18.0851 13.2639 19.2458 13.8982 20.3595 14.6088C21.201 15.1425 22.0047 15.7338 22.7646 16.3785C23.1243 16.6891 23.4451 16.9915 23.7455 17.3042C24.2658 17.8255 24.7289 18.4009 25.1269 19.0207C25.8421 20.1732 26.0546 21.2215 25.6929 22.0205C25.1412 23.2364 23.6311 23.7861 22.0147 23.9169C21.8982 24.4155 21.7695 24.8936 21.6285 25.3473C24.6937 25.9093 28.0409 25.756 29.3937 23.0668C30.2438 21.4095 29.3937 19.1883 27.3686 16.9609Z" fill="white"/>
</svg>
